<?xml version="1.0" standalone="no"?>
<!DOCTYPE svg PUBLIC "-//W3C//DTD SVG 20010904//EN"
 "http://www.w3.org/TR/2001/REC-SVG-20010904/DTD/svg10.dtd">
<svg version="1.0" xmlns="http://www.w3.org/2000/svg"
 width="940.000000pt" height="940.000000pt" viewBox="0 0 940.000000 940.000000"
 preserveAspectRatio="xMidYMid meet">
<metadata>
Created by potrace 1.14, written by Peter Selinger 2001-2017
</metadata>
<g transform="translate(0.000000,940.000000) scale(0.100000,-0.100000)"
fill="#000000" stroke="none">
<path d="M7208 8625 c-3 -3 -495 -8 -1094 -10 -599 -3 -1096 -8 -1105 -11 -9
-2 -19 -12 -21 -22 -2 -9 -4 -275 -3 -589 0 -315 -4 -573 -8 -573 -5 0 -5 -5
-2 -11 8 -13 9 -205 0 -218 -3 -5 -1 -12 5 -16 6 -4 8 -10 5 -15 -3 -5 -8
-984 -11 -2177 -3 -1192 -7 -2624 -8 -3180 -3 -930 -2 -1014 14 -1028 14 -13
142 -14 1041 -10 563 3 1066 7 1117 10 108 6 236 19 252 25 3 1 8 2 12 1 4 0
31 4 60 10 29 6 64 12 78 15 14 3 33 7 42 10 10 3 29 7 42 10 20 3 128 34 174
49 7 3 13 4 15 4 1 -1 29 11 62 26 33 14 62 26 65 27 28 3 185 81 300 149 95
55 286 195 354 258 80 75 183 179 231 235 28 31 56 64 63 71 6 7 12 16 12 19
0 5 17 28 45 60 30 33 65 86 58 86 -4 0 -3 4 2 8 45 33 179 291 246 472 29 80
92 293 98 335 1 3 1 6 2 8 5 18 28 179 36 257 9 89 9 3548 1 3665 -7 84 -24
212 -32 236 -3 8 -8 30 -11 49 -6 42 -18 87 -40 160 -10 30 -18 60 -20 65 -1
6 -6 19 -10 30 -4 11 -19 49 -33 85 -25 65 -91 202 -130 272 -40 71 -106 173
-114 176 -4 2 -8 8 -8 12 0 5 -23 40 -51 77 -94 126 -212 253 -328 352 -30 25
-62 54 -70 64 -9 9 -19 17 -23 17 -7 0 -73 47 -121 86 -9 8 -19 14 -21 14 -3
0 -31 17 -63 38 -119 78 -384 200 -493 226 -166 41 -235 56 -280 62 -30 3 -66
8 -80 11 -14 2 -71 5 -128 8 -56 2 -106 6 -111 9 -4 3 -10 3 -13 1z m102
-1366 c81 -15 214 -61 230 -79 3 -4 20 -12 38 -19 17 -8 32 -17 32 -22 0 -5 5
-9 11 -9 6 0 17 -6 24 -12 8 -7 41 -35 73 -63 60 -51 155 -162 182 -212 8 -15
23 -39 33 -53 9 -13 17 -32 17 -42 0 -10 4 -18 8 -18 10 0 48 -123 61 -200 6
-35 10 -694 10 -1775 0 -1827 2 -1770 -46 -1925 -51 -170 -212 -393 -353 -490
-19 -13 -37 -27 -40 -30 -3 -3 -22 -14 -42 -25 -21 -11 -38 -23 -38 -27 0 -5
-8 -8 -18 -8 -10 0 -26 -6 -37 -13 -28 -19 -104 -45 -180 -62 -5 -2 -26 -5
-45 -9 -19 -3 -48 -8 -65 -12 -24 -4 -734 -9 -807 -5 -17 1 -18 118 -13 2223
2 1223 4 2373 5 2556 l0 333 50 -2 c27 -2 52 -1 54 2 10 9 804 8 856 -2z"/>
<path d="M39 8600 c-12 -7 -15 -31 -17 -120 0 -62 -3 -114 -6 -117 -3 -3 -1
-13 4 -23 5 -10 7 -20 4 -23 -4 -3 -8 -240 -9 -527 -3 -509 -2 -521 17 -531
13 -7 260 -10 759 -10 l739 0 0 -3229 c0 -2922 1 -3230 16 -3244 14 -14 88
-16 669 -16 548 0 656 2 668 14 14 15 15 345 5 5041 l-2 1430 748 2 c640 1
751 4 764 16 12 13 14 110 14 668 0 617 -1 653 -18 666 -15 11 -406 13 -2178
13 -1287 0 -2167 -4 -2177 -10z"/>
</g>
</svg>
